<svg xmlns="http://www.w3.org/2000/svg" xmlns:xlink="http://www.w3.org/1999/xlink"
            width="2952" height="1022"
            viewBox="24 24 2952 1022" version="1.1">
            <defs><marker id="arrowSecuenceFlow1e7f2af2-c554-4e15-866f-390b1fe137dc" markerWidth="12" markerHeight="12" refX="9.8" refY="6" orient="auto" markerUnits="strokeWidth"><path d="M0,0 L2,6 L0,12 L10,6 z" style="fill: rgb(37, 99, 235);"/></marker></defs> <g class="djs-group"><g class="djs-element djs-shape" data-element-id="7e734d3d-21bb-4ef4-a6da-7c73755263ac" id="gfx-7e734d3d-21bb-4ef4-a6da-7c73755263ac" transform="matrix(1 0 0 1 40 40)" style="display: block;"><g class="djs-visual"><g><rect x="0" y="0" width="2920" height="990" style="fill: transparent; opacity: 0;"/><path d="M2920,0 L0,0 L0,990 L2920,990 z M50,0 V990" class="" style="stroke: rgb(100, 116, 139); fill: transparent; stroke-width: 1px; shape-rendering: crispedges;"/></g></g><svg class="djs-svg-text" width="50" height="990"><text lineHeight="1.2" textDirection="270" textAlign="center" class="djs-label" transform="matrix(-1.83697e-16 -1 1 -1.83697e-16 0 990)" style="font-family: 'Segoe UI'; font-size: 14.6096px; font-weight: bold; font-style: normal; fill: rgb(37, 99, 235);"><tspan x="349.1640930175781" y="29.25">HackerOne — vulnerability report lifecycle</tspan></text></svg></g></g><g class="djs-group"><g class="djs-element djs-shape" data-element-id="d232ac07-959c-4454-9da8-a6e90227c17b" id="gfx-d232ac07-959c-4454-9da8-a6e90227c17b" transform="matrix(1 0 0 1 90 40)" style="display: block;"><g class="djs-visual"><path d="M2870,0 L0,0 L0,280 L2870,280 z" class="" style="fill: transparent; stroke: rgb(100, 116, 139); shape-rendering: crispedges;"/><rect x="0" y="0" width="2870" height="280" style="fill: transparent; opacity: 0;"/></g><svg class="djs-svg-text" width="30" height="280"><text lineHeight="1.2" textDirection="270" textAlign="center" class="djs-label" transform="matrix(-1.83697e-16 -1 1 -1.83697e-16 0 280)" style="font-family: 'Segoe UI'; font-size: 14.6096px; font-weight: bold; font-style: normal; fill: rgb(37, 99, 235);"><tspan x="102.74793243408203" y="19.25">Researcher</tspan></text></svg></g></g><g class="djs-group"><g class="djs-element djs-shape" data-element-id="791f99d8-93c8-458d-ae9c-14b97b82699c" id="gfx-791f99d8-93c8-458d-ae9c-14b97b82699c" transform="matrix(1 0 0 1 90 320)" style="display: block;"><g class="djs-visual"><path d="M2870,0 L0,0 L0,710 L2870,710 z" class="" style="fill: transparent; stroke: rgb(100, 116, 139); shape-rendering: crispedges;"/><rect x="0" y="0" width="2870" height="710" style="fill: transparent; opacity: 0;"/></g><svg class="djs-svg-text" width="30" height="710"><text lineHeight="1.2" textDirection="270" textAlign="center" class="djs-label" transform="matrix(-1.83697e-16 -1 1 -1.83697e-16 0 710)" style="font-family: 'Segoe UI'; font-size: 14.6096px; font-weight: bold; font-style: normal; fill: rgb(37, 99, 235);"><tspan x="278.2359924316406" y="19.25">Program / triage team</tspan></text></svg></g></g><g class="djs-group"><g class="djs-element djs-shape" data-element-id="5854ba94-6dae-4cd3-b550-a2c500b14abc" id="gfx-5854ba94-6dae-4cd3-b550-a2c500b14abc" transform="matrix(1 0 0 1 240 115)" style="display: block;"><g class="djs-visual"><g><rect x="0" y="0" rx="8" width="160" height="80" class="" style="fill: rgb(239, 246, 255); stroke: rgb(37, 99, 235); stroke-width: 2px;"/><g/></g></g><svg class="djs-svg-text" width="160" height="76"><text lineHeight="1.2" textDirection="0" textAlign="center" class="djs-label" style="font-family: 'Segoe UI'; font-size: 14.6096px; font-weight: normal; font-style: normal; fill: rgb(23, 37, 84);"><tspan x="6.076866149902344" y="35.75">Choose a program and</tspan><tspan x="6.9358978271484375" y="52.75">review rules and scope</tspan></text></svg></g></g><g class="djs-group"><g class="djs-element djs-shape" data-element-id="92f222bc-e66c-4428-bd60-0833cdd002fc" id="gfx-92f222bc-e66c-4428-bd60-0833cdd002fc" transform="matrix(1 0 0 1 470 115)" style="display: block;"><g class="djs-visual"><g><rect x="0" y="0" rx="8" width="160" height="80" class="" style="fill: rgb(239, 246, 255); stroke: rgb(37, 99, 235); stroke-width: 2px;"/><g/></g></g><svg class="djs-svg-text" width="160" height="76"><text lineHeight="1.2" textDirection="0" textAlign="center" class="djs-label" style="font-family: 'Segoe UI'; font-size: 14.6096px; font-weight: normal; font-style: normal; fill: rgb(23, 37, 84);"><tspan x="35.21624755859375" y="35.75">Research and </tspan><tspan x="10.108268737792969" y="52.75">document the finding</tspan></text></svg></g></g><g class="djs-group"><g class="djs-element djs-shape" data-element-id="64706c98-3f91-4986-9ef7-43e8e41df9a2" id="gfx-64706c98-3f91-4986-9ef7-43e8e41df9a2" transform="matrix(1 0 0 1 700 115)" style="display: block;"><g class="djs-visual"><g><rect x="0" y="0" rx="8" width="160" height="80" class="" style="fill: rgb(239, 246, 255); stroke: rgb(37, 99, 235); stroke-width: 2px;"/><g/></g></g><svg class="djs-svg-text" width="160" height="76"><text lineHeight="1.2" textDirection="0" textAlign="center" class="djs-label" style="font-family: 'Segoe UI'; font-size: 14.6096px; font-weight: normal; font-style: normal; fill: rgb(23, 37, 84);"><tspan x="17.11241912841797" y="35.75">Submit a report on </tspan><tspan x="44.29490661621094" y="52.75">HackerOne</tspan></text></svg></g></g><g class="djs-group"><g class="djs-element djs-shape" data-element-id="efa51bc1-9393-4f88-8be8-640e349fe043" id="gfx-efa51bc1-9393-4f88-8be8-640e349fe043" transform="matrix(1 0 0 1 1030 190)" style="display: block;"><g class="djs-visual"><g><rect x="0" y="0" rx="8" width="160" height="80" class="" style="fill: rgb(239, 246, 255); stroke: rgb(37, 99, 235); stroke-width: 2px;"/><g/></g></g><svg class="djs-svg-text" width="160" height="76"><text lineHeight="1.2" textDirection="0" textAlign="center" class="djs-label" style="font-family: 'Segoe UI'; font-size: 14.6096px; font-weight: normal; font-style: normal; fill: rgb(23, 37, 84);"><tspan x="19.50414276123047" y="35.75">Provide additional </tspan><tspan x="42.348716735839844" y="52.75">information</tspan></text></svg></g></g><g class="djs-group"><g class="djs-element djs-shape" data-element-id="889b8ea4-50ec-47b9-9865-a59e9536448a" id="gfx-889b8ea4-50ec-47b9-9865-a59e9536448a" transform="matrix(1 0 0 1 700 450)" style="display: block;"><g class="djs-visual"><g><rect x="0" y="0" rx="8" width="160" height="80" class="" style="fill: rgb(239, 246, 255); stroke: rgb(37, 99, 235); stroke-width: 2px;"/><g/></g></g><svg class="djs-svg-text" width="160" height="76"><text lineHeight="1.2" textDirection="0" textAlign="center" class="djs-label" style="font-family: 'Segoe UI'; font-size: 14.6096px; font-weight: normal; font-style: normal; fill: rgb(23, 37, 84);"><tspan x="33.234405517578125" y="35.75">Review scope, </tspan><tspan x="13.430328369140625" y="52.75">evidence and impact</tspan></text></svg></g></g><g class="djs-group"><g class="djs-element djs-shape" data-element-id="afbb8b0c-00c6-40ec-b54e-8987d279c928" id="gfx-afbb8b0c-00c6-40ec-b54e-8987d279c928" transform="matrix(1 0 0 1 1130 680)" style="display: block;"><g class="djs-visual"><g><rect x="0" y="0" rx="8" width="185" height="100" class="" style="fill: rgb(254, 243, 199); stroke: rgb(180, 83, 9); stroke-width: 2px;"/><g/></g></g><svg class="djs-svg-text" width="185" height="96"><text lineHeight="1.2" textDirection="0" textAlign="center" class="djs-label" style="font-family: 'Segoe UI'; font-size: 14.6096px; font-weight: normal; font-style: normal; fill: rgb(23, 37, 84);"><tspan x="26.500648498535156" y="37.25">Close with a reason: </tspan><tspan x="11.626197814941406" y="54.25">Duplicate / Informative / </tspan><tspan x="44.49755096435547" y="71.25">Not Applicable</tspan></text></svg></g></g><g class="djs-group"><g class="djs-element djs-shape" data-element-id="0eef2f87-0f09-4a8f-a55d-5090e37e2198" id="gfx-0eef2f87-0f09-4a8f-a55d-5090e37e2198" transform="matrix(1 0 0 1 1360 450)" style="display: block;"><g class="djs-visual"><g><rect x="0" y="0" rx="8" width="160" height="80" class="" style="fill: rgb(239, 246, 255); stroke: rgb(37, 99, 235); stroke-width: 2px;"/><g/></g></g><svg class="djs-svg-text" width="160" height="76"><text lineHeight="1.2" textDirection="0" textAlign="center" class="djs-label" style="font-family: 'Segoe UI'; font-size: 14.6096px; font-weight: normal; font-style: normal; fill: rgb(23, 37, 84);"><tspan x="8.179901123046875" y="35.75">Validate and prioritize:</tspan><tspan x="56.37482452392578" y="52.75">Triaged</tspan></text></svg></g></g><g class="djs-group"><g class="djs-element djs-shape" data-element-id="2e1c6be1-37f7-4e33-a0b3-503235d3cb94" id="gfx-2e1c6be1-37f7-4e33-a0b3-503235d3cb94" transform="matrix(1 0 0 1 1590 450)" style="display: block;"><g class="djs-visual"><g><rect x="0" y="0" rx="8" width="160" height="80" class="" style="fill: rgb(239, 246, 255); stroke: rgb(37, 99, 235); stroke-width: 2px;"/><g/></g></g><svg class="djs-svg-text" width="160" height="76"><text lineHeight="1.2" textDirection="0" textAlign="center" class="djs-label" style="font-family: 'Segoe UI'; font-size: 14.6096px; font-weight: normal; font-style: normal; fill: rgb(23, 37, 84);"><tspan x="17.696983337402344" y="44.25">Fix the vulnerability</tspan></text></svg></g></g><g class="djs-group"><g class="djs-element djs-shape" data-element-id="4dbc7910-2b3c-4bc3-9ac6-230186979ee0" id="gfx-4dbc7910-2b3c-4bc3-9ac6-230186979ee0" transform="matrix(1 0 0 1 1820 450)" style="display: block;"><g class="djs-visual"><g><rect x="0" y="0" rx="8" width="160" height="80" class="" style="fill: rgb(239, 246, 255); stroke: rgb(37, 99, 235); stroke-width: 2px;"/><g/></g></g><svg class="djs-svg-text" width="160" height="76"><text lineHeight="1.2" textDirection="0" textAlign="center" class="djs-label" style="font-family: 'Segoe UI'; font-size: 14.6096px; font-weight: normal; font-style: normal; fill: rgb(23, 37, 84);"><tspan x="40.16370391845703" y="44.25">Verify the fix</tspan></text></svg></g></g><g class="djs-group"><g class="djs-element djs-shape" data-element-id="512f94a8-2a06-4c82-8814-5efe4aa9850d" id="gfx-512f94a8-2a06-4c82-8814-5efe4aa9850d" transform="matrix(1 0 0 1 2190 450)" style="display: block;"><g class="djs-visual"><g><rect x="0" y="0" rx="8" width="160" height="80" class="" style="fill: rgb(220, 252, 231); stroke: rgb(21, 128, 61); stroke-width: 2px;"/><g/></g></g><svg class="djs-svg-text" width="160" height="76"><text lineHeight="1.2" textDirection="0" textAlign="center" class="djs-label" style="font-family: 'Segoe UI'; font-size: 14.6096px; font-weight: normal; font-style: normal; fill: rgb(23, 37, 84);"><tspan x="21.015480041503906" y="35.75">Close as resolved: </tspan><tspan x="51.274085998535156" y="52.75">Resolved</tspan></text></svg></g></g><g class="djs-group"><g class="djs-element djs-shape" data-element-id="228957cc-ad4a-4b33-bb9b-743774b61106" id="gfx-228957cc-ad4a-4b33-bb9b-743774b61106" transform="matrix(1 0 0 1 2600 450)" style="display: block;"><g class="djs-visual"><g><rect x="0" y="0" rx="8" width="170" height="80" class="" style="fill: rgb(239, 246, 255); stroke: rgb(37, 99, 235); stroke-width: 2px;"/><g/></g></g><svg class="djs-svg-text" width="170" height="76"><text lineHeight="1.2" textDirection="0" textAlign="center" class="djs-label" style="font-family: 'Segoe UI'; font-size: 14.6096px; font-weight: normal; font-style: normal; fill: rgb(23, 37, 84);"><tspan x="26.386199951171875" y="35.75">Publish under the </tspan><tspan x="41.506568908691406" y="52.75">agreed policy</tspan></text></svg></g></g><g class="djs-group"><g class="djs-element djs-shape" data-element-id="040d116c-1e9a-40a4-b1ec-e55801e1c9cb" id="gfx-040d116c-1e9a-40a4-b1ec-e55801e1c9cb" transform="matrix(1 0 0 1 150 140)" style="display: block;"><g class="djs-visual"><g><g transform="translate(-8.90625 -8.90625) scale(1.5 1.5)"><path d="M16,25.2c-5.1,0-9.2-4.1-9.2-9.2s4.1-9.2,9.2-9.2s9.2,4.1,9.2,9.2S21.1,25.2,16,25.2L16,25.2z" style="fill: rgb(230, 255, 151);"/><path class="" d="M15.9,7c5,0,9,4,9,9s-4,9-9,9s-9-4-9-9S10.9,7,15.9,7 M15.9,6c-5.5,0-10,4.5-10,10s4.5,10,10,10s10-4.5,10-10
        S21.4,6,15.9,6z" style="fill: rgb(98, 167, 22); stroke: rgb(98, 167, 22); stroke-width: 0.2px;"/></g></g></g></g></g><g class="djs-group"><g class="djs-element djs-shape" data-element-id="ca2e6a7f-6bf1-430e-a751-a41457f3f580" id="gfx-ca2e6a7f-6bf1-430e-a751-a41457f3f580" transform="matrix(1 0 0 1 120 185)" style="display: block;"><g class="djs-visual"><rect x="0" y="0" width="90" height="28" style="fill: rgba(255, 255, 255, 0); stroke: transparent;"/><svg class="djs-svg-text" width="90" height="23"><text lineHeight="1.2" textDirection="0" textAlign="center" class="djs-label" style="font-family: 'Segoe UI'; font-size: 14.6096px; font-weight: normal; font-style: normal; fill: rgb(37, 99, 235);"><tspan x="30.157638549804688" y="17.75">Start</tspan></text></svg></g></g></g><g class="djs-group"><g class="djs-element djs-shape" data-element-id="4e0b9081-31eb-44e8-91cf-f825043f0b01" id="gfx-4e0b9081-31eb-44e8-91cf-f825043f0b01" transform="matrix(1 0 0 1 1390 715)" style="display: block;"><g class="djs-visual"><g><g transform="translate(-8.90625 -8.90625) scale(1.5 1.5)"><path d="M16,25.2A9.2,9.2,0,1,1,25.2,16,9.2,9.2,0,0,1,16,25.2Z" style="fill: rgb(238, 170, 170);"/><path class="" d="M16,7.5A8.5,8.5,0,1,1,7.5,16,8.5,8.5,0,0,1,16,7.5M16,6A10,10,0,1,0,26,16,10,10,0,0,0,16,6Z" style="fill: rgb(153, 0, 0); stroke: rgb(153, 0, 0); stroke-width: 0.4px;"/></g></g></g></g></g><g class="djs-group"><g class="djs-element djs-shape" data-element-id="5e4e6c08-97de-4828-a739-f25ec88a12fa" id="gfx-5e4e6c08-97de-4828-a739-f25ec88a12fa" transform="matrix(1 0 0 1 1335 760)" style="display: block;"><g class="djs-visual"><rect x="0" y="0" width="140" height="45" style="fill: rgba(255, 255, 255, 0); stroke: transparent;"/><svg class="djs-svg-text" width="140" height="40"><text lineHeight="1.2" textDirection="0" textAlign="center" class="djs-label" style="font-family: 'Segoe UI'; font-size: 14.6096px; font-weight: normal; font-style: normal; fill: rgb(37, 99, 235);"><tspan x="10.291900634765625" y="17.75">Alternative closure</tspan></text></svg></g></g></g><g class="djs-group"><g class="djs-element djs-shape" data-element-id="59e47cca-8e23-4490-a8e8-5bb1fad1e2f5" id="gfx-59e47cca-8e23-4490-a8e8-5bb1fad1e2f5" transform="matrix(1 0 0 1 2860 475)" style="display: block;"><g class="djs-visual"><g><g transform="translate(-8.90625 -8.90625) scale(1.5 1.5)"><path d="M16,25.2A9.2,9.2,0,1,1,25.2,16,9.2,9.2,0,0,1,16,25.2Z" style="fill: rgb(238, 170, 170);"/><path class="" d="M16,7.5A8.5,8.5,0,1,1,7.5,16,8.5,8.5,0,0,1,16,7.5M16,6A10,10,0,1,0,26,16,10,10,0,0,0,16,6Z" style="fill: rgb(153, 0, 0); stroke: rgb(153, 0, 0); stroke-width: 0.4px;"/></g></g></g></g></g><g class="djs-group"><g class="djs-element djs-shape" data-element-id="7207e05c-c1ee-4628-828e-68e2f74466d9" id="gfx-7207e05c-c1ee-4628-828e-68e2f74466d9" transform="matrix(1 0 0 1 2795 415)" style="display: block;"><g class="djs-visual"><rect x="0" y="0" width="160" height="42" style="fill: rgba(255, 255, 255, 0); stroke: transparent;"/><svg class="djs-svg-text" width="160" height="37"><text lineHeight="1.2" textDirection="0" textAlign="center" class="djs-label" style="font-family: 'Segoe UI'; font-size: 14.6096px; font-weight: normal; font-style: normal; fill: rgb(37, 99, 235);"><tspan x="19.30810546875" y="17.75">Process completed</tspan></text></svg></g></g></g><g class="djs-group"><g class="djs-element djs-shape" data-element-id="06b50b5a-64c4-44a6-b47e-e992279c2956" id="gfx-06b50b5a-64c4-44a6-b47e-e992279c2956" transform="matrix(1 0 0 1 950 465)" style="display: block;"><g class="djs-visual"><g><path class="" d="M0,25 
                L25,50
                L50,25
                L25,0 Z" style="fill: rgb(254, 243, 199); stroke: rgb(180, 83, 9); stroke-width: 1.8px;"/></g></g></g></g><g class="djs-group"><g class="djs-element djs-shape" data-element-id="40f38f71-d2fa-496a-96f4-b26395323d6d" id="gfx-40f38f71-d2fa-496a-96f4-b26395323d6d" transform="matrix(1 0 0 1 895 533)" style="display: block;"><g class="djs-visual"><rect x="0" y="0" width="160" height="48" style="fill: rgba(255, 255, 255, 0); stroke: transparent;"/><svg class="djs-svg-text" width="160" height="43"><text lineHeight="1.2" textDirection="0" textAlign="center" class="djs-label" style="font-family: 'Segoe UI'; font-size: 14.6096px; font-weight: normal; font-style: normal; fill: rgb(37, 99, 235);"><tspan x="21.16162109375" y="17.75">More information </tspan><tspan x="52.546600341796875" y="34.75">needed?</tspan></text></svg></g></g></g><g class="djs-group"><g class="djs-element djs-shape" data-element-id="f05ae849-0880-4c5f-b7d6-7048581b8442" id="gfx-f05ae849-0880-4c5f-b7d6-7048581b8442" transform="matrix(1 0 0 1 1180 465)" style="display: block;"><g class="djs-visual"><g><path class="" d="M0,25 
                L25,50
                L50,25
                L25,0 Z" style="fill: rgb(254, 243, 199); stroke: rgb(180, 83, 9); stroke-width: 1.8px;"/></g></g></g></g><g class="djs-group"><g class="djs-element djs-shape" data-element-id="5a771f37-00aa-4e69-9710-227a7f6485cd" id="gfx-5a771f37-00aa-4e69-9710-227a7f6485cd" transform="matrix(1 0 0 1 1125 405)" style="display: block;"><g class="djs-visual"><rect x="0" y="0" width="160" height="48" style="fill: rgba(255, 255, 255, 0); stroke: transparent;"/><svg class="djs-svg-text" width="160" height="43"><text lineHeight="1.2" textDirection="0" textAlign="center" class="djs-label" style="font-family: 'Segoe UI'; font-size: 14.6096px; font-weight: normal; font-style: normal; fill: rgb(37, 99, 235);"><tspan x="26.789886474609375" y="17.75">Action required?</tspan></text></svg></g></g></g><g class="djs-group"><g class="djs-element djs-shape" data-element-id="a03b8270-f7e6-40fe-acc1-d250a62a5a78" id="gfx-a03b8270-f7e6-40fe-acc1-d250a62a5a78" transform="matrix(1 0 0 1 2050 465)" style="display: block;"><g class="djs-visual"><g><path class="" d="M0,25 
                L25,50
                L50,25
                L25,0 Z" style="fill: rgb(254, 243, 199); stroke: rgb(180, 83, 9); stroke-width: 1.8px;"/></g></g></g></g><g class="djs-group"><g class="djs-element djs-shape" data-element-id="f2b8876c-1687-4b32-9879-78eba7ea5007" id="gfx-f2b8876c-1687-4b32-9879-78eba7ea5007" transform="matrix(1 0 0 1 1995 405)" style="display: block;"><g class="djs-visual"><rect x="0" y="0" width="160" height="48" style="fill: rgba(255, 255, 255, 0); stroke: transparent;"/><svg class="djs-svg-text" width="160" height="43"><text lineHeight="1.2" textDirection="0" textAlign="center" class="djs-label" style="font-family: 'Segoe UI'; font-size: 14.6096px; font-weight: normal; font-style: normal; fill: rgb(37, 99, 235);"><tspan x="59.92857360839844" y="17.75">Fixed?</tspan></text></svg></g></g></g><g class="djs-group"><g class="djs-element djs-shape" data-element-id="26d01d13-9f5a-48b0-8678-b695020635d7" id="gfx-26d01d13-9f5a-48b0-8678-b695020635d7" transform="matrix(1 0 0 1 2430 465)" style="display: block;"><g class="djs-visual"><g><path class="" d="M0,25 
                L25,50
                L50,25
                L25,0 Z" style="fill: rgb(254, 243, 199); stroke: rgb(180, 83, 9); stroke-width: 1.8px;"/></g></g></g></g><g class="djs-group"><g class="djs-element djs-shape" data-element-id="b0628eaf-0e19-48da-9a36-9a26990414c5" id="gfx-b0628eaf-0e19-48da-9a36-9a26990414c5" transform="matrix(1 0 0 1 2375 405)" style="display: block;"><g class="djs-visual"><rect x="0" y="0" width="160" height="48" style="fill: rgba(255, 255, 255, 0); stroke: transparent;"/><svg class="djs-svg-text" width="160" height="43"><text lineHeight="1.2" textDirection="0" textAlign="center" class="djs-label" style="font-family: 'Segoe UI'; font-size: 14.6096px; font-weight: normal; font-style: normal; fill: rgb(37, 99, 235);"><tspan x="19.258201599121094" y="17.75">Disclosure agreed?</tspan></text></svg></g></g></g><g class="djs-group"><g class="djs-element djs-shape" data-element-id="bd8b3935-8265-481b-9363-93205302facc" id="gfx-bd8b3935-8265-481b-9363-93205302facc" transform="matrix(1 0 0 1 670 840)" style="display: block;"><g class="djs-visual"><g><rect class="" x="0" y="0" width="335" height="95" style="fill: rgb(239, 246, 255);"/><path d="M111.66666666666667,0 L0,0 L0,95 L111.66666666666667,95" style="fill: transparent; stroke: rgb(0, 0, 0); stroke-width: 0.4px; shape-rendering: crispedges;"/></g></g><svg class="djs-svg-text" width="335" height="95"><text lineHeight="1.2" textDirection="0" textAlign="left" class="djs-label" style="font-family: 'Segoe UI'; font-size: 14.6096px; font-weight: normal; font-style: normal; fill: rgb(23, 37, 84);"><tspan x="5" y="43.25">Triage may be handled by the program or </tspan><tspan x="5" y="60.25">HackerOne, if that service is contracted.</tspan></text></svg></g></g><g class="djs-group"><g class="djs-element djs-shape" data-element-id="95d2b77d-7a4a-463c-b725-2019717c7ec1" id="gfx-95d2b77d-7a4a-463c-b725-2019717c7ec1" transform="matrix(1 0 0 1 1350 840)" style="display: block;"><g class="djs-visual"><g><rect class="" x="0" y="0" width="330" height="100" style="fill: rgb(239, 246, 255);"/><path d="M110,0 L0,0 L0,100 L110,100" style="fill: transparent; stroke: rgb(0, 0, 0); stroke-width: 0.4px; shape-rendering: crispedges;"/></g></g><svg class="djs-svg-text" width="330" height="100"><text lineHeight="1.2" textDirection="0" textAlign="left" class="djs-label" style="font-family: 'Segoe UI'; font-size: 14.6096px; font-weight: normal; font-style: normal; fill: rgb(23, 37, 84);"><tspan x="5" y="37.25">Rewards are optional, subject to eligibility and </tspan><tspan x="5" y="54.25">policy. They may be handled before or after </tspan><tspan x="5" y="71.25">resolution.</tspan></text></svg></g></g><g class="djs-group"><g class="djs-element djs-shape" data-element-id="13d5015f-2a1a-4bcf-892f-fe6ef4dda43b" id="gfx-13d5015f-2a1a-4bcf-892f-fe6ef4dda43b" transform="matrix(1 0 0 1 1830 840)" style="display: block;"><g class="djs-visual"><g><rect class="" x="0" y="0" width="305" height="90" style="fill: rgb(239, 246, 255);"/><path d="M101.66666666666667,0 L0,0 L0,90 L101.66666666666667,90" style="fill: transparent; stroke: rgb(0, 0, 0); stroke-width: 0.4px; shape-rendering: crispedges;"/></g></g><svg class="djs-svg-text" width="305" height="90"><text lineHeight="1.2" textDirection="0" textAlign="left" class="djs-label" style="font-family: 'Segoe UI'; font-size: 14.6096px; font-weight: normal; font-style: normal; fill: rgb(23, 37, 84);"><tspan x="5" y="40.75">Retesting: a new verification by the </tspan><tspan x="5" y="57.75">researcher, when requested by the program.</tspan></text></svg></g></g><g class="djs-group"><g class="djs-element djs-shape" data-element-id="c9aa9cab-a2d4-40c6-a68e-13b7061eeb1d" id="gfx-c9aa9cab-a2d4-40c6-a68e-13b7061eeb1d" transform="matrix(1 0 0 1 2430 840)" style="display: block;"><g class="djs-visual"><g><rect class="" x="0" y="0" width="345" height="90" style="fill: rgb(239, 246, 255);"/><path d="M115,0 L0,0 L0,90 L115,90" style="fill: transparent; stroke: rgb(0, 0, 0); stroke-width: 0.4px; shape-rendering: crispedges;"/></g></g><svg class="djs-svg-text" width="345" height="90"><text lineHeight="1.2" textDirection="0" textAlign="left" class="djs-label" style="font-family: 'Segoe UI'; font-size: 14.6096px; font-weight: normal; font-style: normal; fill: rgb(23, 37, 84);"><tspan x="5" y="40.75">Disclosure is optional. It depends on the policy and</tspan><tspan x="5" y="57.75">coordination with the program.</tspan></text></svg></g></g><g class="djs-group"><g class="djs-element djs-connection" data-element-id="1e7f2af2-c554-4e15-866f-390b1fe137dc" id="gfx-1e7f2af2-c554-4e15-866f-390b1fe137dc" style="display: block;"><g class="djs-visual"><g><defs><marker id="arrowSecuenceFlow1e7f2af2-c554-4e15-866f-390b1fe137dc" markerWidth="12" markerHeight="12" refX="9.8" refY="6" orient="auto" markerUnits="strokeWidth"><path d="M0,0 L2,6 L0,12 L10,6 z" style="fill: rgb(37, 99, 235);"/></marker></defs><path class="" d="M180,155L240,155" style="stroke-width: 1px; stroke: rgb(37, 99, 235); fill: transparent; stroke-linejoin: round; shape-rendering: crispedges; marker-end: url('#arrowSecuenceFlow1e7f2af2-c554-4e15-866f-390b1fe137dc');"/></g></g></g></g><g class="djs-group"><g class="djs-element djs-connection" data-element-id="cd453583-a7db-427d-8f0e-fc0317f22212" id="gfx-cd453583-a7db-427d-8f0e-fc0317f22212" style="display: block;"><g class="djs-visual"><g><defs><marker id="arrowSecuenceFlowcd453583-a7db-427d-8f0e-fc0317f22212" markerWidth="12" markerHeight="12" refX="9.8" refY="6" orient="auto" markerUnits="strokeWidth"><path d="M0,0 L2,6 L0,12 L10,6 z" style="fill: rgb(37, 99, 235);"/></marker></defs><path class="" d="M400,155L470,155" style="stroke-width: 1px; stroke: rgb(37, 99, 235); fill: transparent; stroke-linejoin: round; shape-rendering: crispedges; marker-end: url('#arrowSecuenceFlowcd453583-a7db-427d-8f0e-fc0317f22212');"/></g></g></g></g><g class="djs-group"><g class="djs-element djs-connection" data-element-id="022d2f4c-6d70-494a-9f58-7f39d5112731" id="gfx-022d2f4c-6d70-494a-9f58-7f39d5112731" style="display: block;"><g class="djs-visual"><g><defs><marker id="arrowSecuenceFlow022d2f4c-6d70-494a-9f58-7f39d5112731" markerWidth="12" markerHeight="12" refX="9.8" refY="6" orient="auto" markerUnits="strokeWidth"><path d="M0,0 L2,6 L0,12 L10,6 z" style="fill: rgb(37, 99, 235);"/></marker></defs><path class="" d="M630,155L700,155" style="stroke-width: 1px; stroke: rgb(37, 99, 235); fill: transparent; stroke-linejoin: round; shape-rendering: crispedges; marker-end: url('#arrowSecuenceFlow022d2f4c-6d70-494a-9f58-7f39d5112731');"/></g></g></g></g><g class="djs-group"><g class="djs-element djs-connection" data-element-id="499cf499-ff7b-40eb-98b8-17c57da58141" id="gfx-499cf499-ff7b-40eb-98b8-17c57da58141" style="display: block;"><g class="djs-visual"><g><defs><marker id="arrowSecuenceFlow499cf499-ff7b-40eb-98b8-17c57da58141" markerWidth="12" markerHeight="12" refX="9.8" refY="6" orient="auto" markerUnits="strokeWidth"><path d="M0,0 L2,6 L0,12 L10,6 z" style="fill: rgb(37, 99, 235);"/></marker></defs><path class="" d="M780,195L780,450" style="stroke-width: 1px; stroke: rgb(37, 99, 235); fill: transparent; stroke-linejoin: round; shape-rendering: crispedges; marker-end: url('#arrowSecuenceFlow499cf499-ff7b-40eb-98b8-17c57da58141');"/></g></g></g></g><g class="djs-group"><g class="djs-element djs-shape" data-element-id="7a7bdaec-6a68-47b7-9375-aa9ebe4fcb16" id="gfx-7a7bdaec-6a68-47b7-9375-aa9ebe4fcb16" transform="matrix(1 0 0 1 798 288)" style="display: block;"><g class="djs-visual"><rect x="0" y="0" width="60" height="28" style="fill: rgba(255, 255, 255, 0); stroke: transparent;"/><svg class="djs-svg-text" width="60" height="23"><text lineHeight="1.2" textDirection="0" textAlign="left" class="djs-label" style="font-family: 'Segoe UI'; font-size: 14.6096px; font-weight: normal; font-style: normal; fill: rgb(37, 99, 235);"><tspan x="6" y="17.75">New</tspan></text></svg></g></g></g><g class="djs-group"><g class="djs-element djs-connection" data-element-id="5d200b90-0e77-43c9-92bf-a43c5b76d449" id="gfx-5d200b90-0e77-43c9-92bf-a43c5b76d449" style="display: block;"><g class="djs-visual"><g><defs><marker id="arrowSecuenceFlow5d200b90-0e77-43c9-92bf-a43c5b76d449" markerWidth="12" markerHeight="12" refX="9.8" refY="6" orient="auto" markerUnits="strokeWidth"><path d="M0,0 L2,6 L0,12 L10,6 z" style="fill: rgb(37, 99, 235);"/></marker></defs><path class="" d="M860,490L950,490" style="stroke-width: 1px; stroke: rgb(37, 99, 235); fill: transparent; stroke-linejoin: round; shape-rendering: crispedges; marker-end: url('#arrowSecuenceFlow5d200b90-0e77-43c9-92bf-a43c5b76d449');"/></g></g></g></g><g class="djs-group"><g class="djs-element djs-connection" data-element-id="c3e489a2-f716-46b8-a36e-2435cedc271c" id="gfx-c3e489a2-f716-46b8-a36e-2435cedc271c" style="display: block;"><g class="djs-visual"><g><defs><marker id="arrowSecuenceFlowc3e489a2-f716-46b8-a36e-2435cedc271c" markerWidth="12" markerHeight="12" refX="9.8" refY="6" orient="auto" markerUnits="strokeWidth"><path d="M0,0 L2,6 L0,12 L10,6 z" style="fill: rgb(37, 99, 235);"/></marker></defs><path class="" d="M975,465L975,236C975,236,975,230,981,230L1030,230" style="stroke-width: 1px; stroke: rgb(37, 99, 235); fill: transparent; stroke-linejoin: round; shape-rendering: crispedges; marker-end: url('#arrowSecuenceFlowc3e489a2-f716-46b8-a36e-2435cedc271c');"/></g></g></g></g><g class="djs-group"><g class="djs-element djs-shape" data-element-id="49ec6252-5008-4280-b9eb-ced77f039dd3" id="gfx-49ec6252-5008-4280-b9eb-ced77f039dd3" transform="matrix(1 0 0 1 995 350)" style="display: block;"><g class="djs-visual"><rect x="0" y="0" width="180" height="45" style="fill: rgba(255, 255, 255, 0); stroke: transparent;"/><svg class="djs-svg-text" width="180" height="40"><text lineHeight="1.2" textDirection="0" textAlign="left" class="djs-label" style="font-family: 'Segoe UI'; font-size: 14.6096px; font-weight: normal; font-style: normal; fill: rgb(37, 99, 235);"><tspan x="6" y="17.75">Yes · Needs More Info</tspan></text></svg></g></g></g><g class="djs-group"><g class="djs-element djs-connection" data-element-id="02b3a776-b66c-4ef8-930f-ed39011c058f" id="gfx-02b3a776-b66c-4ef8-930f-ed39011c058f" style="display: block;"><g class="djs-visual"><g><defs><marker id="arrowSecuenceFlow02b3a776-b66c-4ef8-930f-ed39011c058f" markerWidth="12" markerHeight="12" refX="9.8" refY="6" orient="auto" markerUnits="strokeWidth"><path d="M0,0 L2,6 L0,12 L10,6 z" style="fill: rgb(37, 99, 235);"/></marker></defs><path class="" d="M1110,190L1110,96C1110,96,1110,90,1104,90L901,90C901,90,895,90,895,96L895,379C895,379,895,385,889,385L746,385C746,385,740,385,740,391L740,450" style="stroke-width: 1px; stroke: rgb(37, 99, 235); fill: transparent; stroke-linejoin: round; shape-rendering: crispedges; marker-end: url('#arrowSecuenceFlow02b3a776-b66c-4ef8-930f-ed39011c058f');"/></g></g></g></g><g class="djs-group"><g class="djs-element djs-shape" data-element-id="987311f7-e37d-4901-bf53-425742eb0642" id="gfx-987311f7-e37d-4901-bf53-425742eb0642" transform="matrix(1 0 0 1 795 397)" style="display: block;"><g class="djs-visual"><rect x="0" y="0" width="185" height="42" style="fill: rgba(255, 255, 255, 0); stroke: transparent;"/><svg class="djs-svg-text" width="185" height="37"><text lineHeight="1.2" textDirection="0" textAlign="left" class="djs-label" style="font-family: 'Segoe UI'; font-size: 14.6096px; font-weight: normal; font-style: normal; fill: rgb(37, 99, 235);"><tspan x="6" y="17.75">Additional information</tspan></text></svg></g></g></g><g class="djs-group"><g class="djs-element djs-connection" data-element-id="717bbded-b53e-4638-bc90-30f32b94571c" id="gfx-717bbded-b53e-4638-bc90-30f32b94571c" style="display: block;"><g class="djs-visual"><g><defs><marker id="arrowSecuenceFlow717bbded-b53e-4638-bc90-30f32b94571c" markerWidth="12" markerHeight="12" refX="9.8" refY="6" orient="auto" markerUnits="strokeWidth"><path d="M0,0 L2,6 L0,12 L10,6 z" style="fill: rgb(37, 99, 235);"/></marker></defs><path class="" d="M1000,490L1180,490" style="stroke-width: 1px; stroke: rgb(37, 99, 235); fill: transparent; stroke-linejoin: round; shape-rendering: crispedges; marker-end: url('#arrowSecuenceFlow717bbded-b53e-4638-bc90-30f32b94571c');"/></g></g></g></g><g class="djs-group"><g class="djs-element djs-shape" data-element-id="6d9e2d07-a09a-4c7b-b1db-2bbfd78fd9f4" id="gfx-6d9e2d07-a09a-4c7b-b1db-2bbfd78fd9f4" transform="matrix(1 0 0 1 1070 455)" style="display: block;"><g class="djs-visual"><rect x="0" y="0" width="55" height="28" style="fill: rgba(255, 255, 255, 0); stroke: transparent;"/><svg class="djs-svg-text" width="55" height="23"><text lineHeight="1.2" textDirection="0" textAlign="left" class="djs-label" style="font-family: 'Segoe UI'; font-size: 14.6096px; font-weight: normal; font-style: normal; fill: rgb(37, 99, 235);"><tspan x="6" y="17.75">No</tspan></text></svg></g></g></g><g class="djs-group"><g class="djs-element djs-connection" data-element-id="ec0bda91-3072-46c9-a72c-857ef9baf460" id="gfx-ec0bda91-3072-46c9-a72c-857ef9baf460" style="display: block;"><g class="djs-visual"><g><defs><marker id="arrowSecuenceFlowec0bda91-3072-46c9-a72c-857ef9baf460" markerWidth="12" markerHeight="12" refX="9.8" refY="6" orient="auto" markerUnits="strokeWidth"><path d="M0,0 L2,6 L0,12 L10,6 z" style="fill: rgb(37, 99, 235);"/></marker></defs><path class="" d="M1205,515L1205,680" style="stroke-width: 1px; stroke: rgb(37, 99, 235); fill: transparent; stroke-linejoin: round; shape-rendering: crispedges; marker-end: url('#arrowSecuenceFlowec0bda91-3072-46c9-a72c-857ef9baf460');"/></g></g></g></g><g class="djs-group"><g class="djs-element djs-shape" data-element-id="8a1c0c12-01c9-4d71-8958-971d85e4514f" id="gfx-8a1c0c12-01c9-4d71-8958-971d85e4514f" transform="matrix(1 0 0 1 1220 600)" style="display: block;"><g class="djs-visual"><rect x="0" y="0" width="55" height="28" style="fill: rgba(255, 255, 255, 0); stroke: transparent;"/><svg class="djs-svg-text" width="55" height="23"><text lineHeight="1.2" textDirection="0" textAlign="left" class="djs-label" style="font-family: 'Segoe UI'; font-size: 14.6096px; font-weight: normal; font-style: normal; fill: rgb(37, 99, 235);"><tspan x="6" y="17.75">No</tspan></text></svg></g></g></g><g class="djs-group"><g class="djs-element djs-connection" data-element-id="98e726e1-066d-4f14-9147-57ebece324ed" id="gfx-98e726e1-066d-4f14-9147-57ebece324ed" style="display: block;"><g class="djs-visual"><g><defs><marker id="arrowSecuenceFlow98e726e1-066d-4f14-9147-57ebece324ed" markerWidth="12" markerHeight="12" refX="9.8" refY="6" orient="auto" markerUnits="strokeWidth"><path d="M0,0 L2,6 L0,12 L10,6 z" style="fill: rgb(37, 99, 235);"/></marker></defs><path class="" d="M1315,730L1390,730" style="stroke-width: 1px; stroke: rgb(37, 99, 235); fill: transparent; stroke-linejoin: round; shape-rendering: crispedges; marker-end: url('#arrowSecuenceFlow98e726e1-066d-4f14-9147-57ebece324ed');"/></g></g></g></g><g class="djs-group"><g class="djs-element djs-connection" data-element-id="ea9f6224-a249-4b6d-ba08-130281e4e76d" id="gfx-ea9f6224-a249-4b6d-ba08-130281e4e76d" style="display: block;"><g class="djs-visual"><g><defs><marker id="arrowSecuenceFlowea9f6224-a249-4b6d-ba08-130281e4e76d" markerWidth="12" markerHeight="12" refX="9.8" refY="6" orient="auto" markerUnits="strokeWidth"><path d="M0,0 L2,6 L0,12 L10,6 z" style="fill: rgb(37, 99, 235);"/></marker></defs><path class="" d="M1230,490L1360,490" style="stroke-width: 1px; stroke: rgb(37, 99, 235); fill: transparent; stroke-linejoin: round; shape-rendering: crispedges; marker-end: url('#arrowSecuenceFlowea9f6224-a249-4b6d-ba08-130281e4e76d');"/></g></g></g></g><g class="djs-group"><g class="djs-element djs-shape" data-element-id="638a27c0-6434-4839-9060-d7daa87b34aa" id="gfx-638a27c0-6434-4839-9060-d7daa87b34aa" transform="matrix(1 0 0 1 1280 455)" style="display: block;"><g class="djs-visual"><rect x="0" y="0" width="55" height="28" style="fill: rgba(255, 255, 255, 0); stroke: transparent;"/><svg class="djs-svg-text" width="55" height="23"><text lineHeight="1.2" textDirection="0" textAlign="left" class="djs-label" style="font-family: 'Segoe UI'; font-size: 14.6096px; font-weight: normal; font-style: normal; fill: rgb(37, 99, 235);"><tspan x="6" y="17.75">Yes</tspan></text></svg></g></g></g><g class="djs-group"><g class="djs-element djs-connection" data-element-id="404fda18-7f2e-44dd-a9a0-8a18b9359129" id="gfx-404fda18-7f2e-44dd-a9a0-8a18b9359129" style="display: block;"><g class="djs-visual"><g><defs><marker id="arrowSecuenceFlow404fda18-7f2e-44dd-a9a0-8a18b9359129" markerWidth="12" markerHeight="12" refX="9.8" refY="6" orient="auto" markerUnits="strokeWidth"><path d="M0,0 L2,6 L0,12 L10,6 z" style="fill: rgb(37, 99, 235);"/></marker></defs><path class="" d="M1520,490L1590,490" style="stroke-width: 1px; stroke: rgb(37, 99, 235); fill: transparent; stroke-linejoin: round; shape-rendering: crispedges; marker-end: url('#arrowSecuenceFlow404fda18-7f2e-44dd-a9a0-8a18b9359129');"/></g></g></g></g><g class="djs-group"><g class="djs-element djs-connection" data-element-id="6cb34b62-6096-48bf-91da-0b762ae348bb" id="gfx-6cb34b62-6096-48bf-91da-0b762ae348bb" style="display: block;"><g class="djs-visual"><g><defs><marker id="arrowSecuenceFlow6cb34b62-6096-48bf-91da-0b762ae348bb" markerWidth="12" markerHeight="12" refX="9.8" refY="6" orient="auto" markerUnits="strokeWidth"><path d="M0,0 L2,6 L0,12 L10,6 z" style="fill: rgb(37, 99, 235);"/></marker></defs><path class="" d="M1750,490L1820,490" style="stroke-width: 1px; stroke: rgb(37, 99, 235); fill: transparent; stroke-linejoin: round; shape-rendering: crispedges; marker-end: url('#arrowSecuenceFlow6cb34b62-6096-48bf-91da-0b762ae348bb');"/></g></g></g></g><g class="djs-group"><g class="djs-element djs-connection" data-element-id="e0f56ee7-f063-4058-bca6-42dfd907268b" id="gfx-e0f56ee7-f063-4058-bca6-42dfd907268b" style="display: block;"><g class="djs-visual"><g><defs><marker id="arrowSecuenceFlowe0f56ee7-f063-4058-bca6-42dfd907268b" markerWidth="12" markerHeight="12" refX="9.8" refY="6" orient="auto" markerUnits="strokeWidth"><path d="M0,0 L2,6 L0,12 L10,6 z" style="fill: rgb(37, 99, 235);"/></marker></defs><path class="" d="M1980,490L2050,490" style="stroke-width: 1px; stroke: rgb(37, 99, 235); fill: transparent; stroke-linejoin: round; shape-rendering: crispedges; marker-end: url('#arrowSecuenceFlowe0f56ee7-f063-4058-bca6-42dfd907268b');"/></g></g></g></g><g class="djs-group"><g class="djs-element djs-connection" data-element-id="21f0af7d-805f-4b3c-9a4e-ceb19f7f8b9a" id="gfx-21f0af7d-805f-4b3c-9a4e-ceb19f7f8b9a" style="display: block;"><g class="djs-visual"><g><defs><marker id="arrowSecuenceFlow21f0af7d-805f-4b3c-9a4e-ceb19f7f8b9a" markerWidth="12" markerHeight="12" refX="9.8" refY="6" orient="auto" markerUnits="strokeWidth"><path d="M0,0 L2,6 L0,12 L10,6 z" style="fill: rgb(37, 99, 235);"/></marker></defs><path class="" d="M2075,515L2075,654C2075,654,2075,660,2069,660L1676,660C1676,660,1670,660,1670,654L1670,530" style="stroke-width: 1px; stroke: rgb(37, 99, 235); fill: transparent; stroke-linejoin: round; shape-rendering: crispedges; marker-end: url('#arrowSecuenceFlow21f0af7d-805f-4b3c-9a4e-ceb19f7f8b9a');"/></g></g></g></g><g class="djs-group"><g class="djs-element djs-shape" data-element-id="5b1cf463-f3f3-461b-8495-2e35533ba105" id="gfx-5b1cf463-f3f3-461b-8495-2e35533ba105" transform="matrix(1 0 0 1 1800 670)" style="display: block;"><g class="djs-visual"><rect x="0" y="0" width="220" height="40" style="fill: rgba(255, 255, 255, 0); stroke: transparent;"/><svg class="djs-svg-text" width="220" height="35"><text lineHeight="1.2" textDirection="0" textAlign="left" class="djs-label" style="font-family: 'Segoe UI'; font-size: 14.6096px; font-weight: normal; font-style: normal; fill: rgb(37, 99, 235);"><tspan x="6" y="17.75">No · return to remediation</tspan></text></svg></g></g></g><g class="djs-group"><g class="djs-element djs-connection" data-element-id="78a0d508-83a7-4d29-b6be-c3d77f2401cd" id="gfx-78a0d508-83a7-4d29-b6be-c3d77f2401cd" style="display: block;"><g class="djs-visual"><g><defs><marker id="arrowSecuenceFlow78a0d508-83a7-4d29-b6be-c3d77f2401cd" markerWidth="12" markerHeight="12" refX="9.8" refY="6" orient="auto" markerUnits="strokeWidth"><path d="M0,0 L2,6 L0,12 L10,6 z" style="fill: rgb(37, 99, 235);"/></marker></defs><path class="" d="M2100,490L2190,490" style="stroke-width: 1px; stroke: rgb(37, 99, 235); fill: transparent; stroke-linejoin: round; shape-rendering: crispedges; marker-end: url('#arrowSecuenceFlow78a0d508-83a7-4d29-b6be-c3d77f2401cd');"/></g></g></g></g><g class="djs-group"><g class="djs-element djs-shape" data-element-id="8bdae926-3f81-4067-8bd0-66d4366da96b" id="gfx-8bdae926-3f81-4067-8bd0-66d4366da96b" transform="matrix(1 0 0 1 2130 455)" style="display: block;"><g class="djs-visual"><rect x="0" y="0" width="55" height="28" style="fill: rgba(255, 255, 255, 0); stroke: transparent;"/><svg class="djs-svg-text" width="55" height="23"><text lineHeight="1.2" textDirection="0" textAlign="left" class="djs-label" style="font-family: 'Segoe UI'; font-size: 14.6096px; font-weight: normal; font-style: normal; fill: rgb(37, 99, 235);"><tspan x="6" y="17.75">Yes</tspan></text></svg></g></g></g><g class="djs-group"><g class="djs-element djs-connection" data-element-id="a117dca8-b147-42de-a969-04944e488ce0" id="gfx-a117dca8-b147-42de-a969-04944e488ce0" style="display: block;"><g class="djs-visual"><g><defs><marker id="arrowSecuenceFlowa117dca8-b147-42de-a969-04944e488ce0" markerWidth="12" markerHeight="12" refX="9.8" refY="6" orient="auto" markerUnits="strokeWidth"><path d="M0,0 L2,6 L0,12 L10,6 z" style="fill: rgb(37, 99, 235);"/></marker></defs><path class="" d="M2350,490L2430,490" style="stroke-width: 1px; stroke: rgb(37, 99, 235); fill: transparent; stroke-linejoin: round; shape-rendering: crispedges; marker-end: url('#arrowSecuenceFlowa117dca8-b147-42de-a969-04944e488ce0');"/></g></g></g></g><g class="djs-group"><g class="djs-element djs-connection" data-element-id="55fb910c-7767-42c5-9cf5-e3ff59c2f06f" id="gfx-55fb910c-7767-42c5-9cf5-e3ff59c2f06f" style="display: block;"><g class="djs-visual"><g><defs><marker id="arrowSecuenceFlow55fb910c-7767-42c5-9cf5-e3ff59c2f06f" markerWidth="12" markerHeight="12" refX="9.8" refY="6" orient="auto" markerUnits="strokeWidth"><path d="M0,0 L2,6 L0,12 L10,6 z" style="fill: rgb(37, 99, 235);"/></marker></defs><path class="" d="M2480,490L2600,490" style="stroke-width: 1px; stroke: rgb(37, 99, 235); fill: transparent; stroke-linejoin: round; shape-rendering: crispedges; marker-end: url('#arrowSecuenceFlow55fb910c-7767-42c5-9cf5-e3ff59c2f06f');"/></g></g></g></g><g class="djs-group"><g class="djs-element djs-shape" data-element-id="4151452c-49dc-4232-9b6e-f379cfe28397" id="gfx-4151452c-49dc-4232-9b6e-f379cfe28397" transform="matrix(1 0 0 1 2530 455)" style="display: block;"><g class="djs-visual"><rect x="0" y="0" width="55" height="28" style="fill: rgba(255, 255, 255, 0); stroke: transparent;"/><svg class="djs-svg-text" width="55" height="23"><text lineHeight="1.2" textDirection="0" textAlign="left" class="djs-label" style="font-family: 'Segoe UI'; font-size: 14.6096px; font-weight: normal; font-style: normal; fill: rgb(37, 99, 235);"><tspan x="6" y="17.75">Yes</tspan></text></svg></g></g></g><g class="djs-group"><g class="djs-element djs-connection" data-element-id="92fe068a-46af-40d0-9700-00d15dd04699" id="gfx-92fe068a-46af-40d0-9700-00d15dd04699" style="display: block;"><g class="djs-visual"><g><defs><marker id="arrowSecuenceFlow92fe068a-46af-40d0-9700-00d15dd04699" markerWidth="12" markerHeight="12" refX="9.8" refY="6" orient="auto" markerUnits="strokeWidth"><path d="M0,0 L2,6 L0,12 L10,6 z" style="fill: rgb(37, 99, 235);"/></marker></defs><path class="" d="M2770,490L2860,490" style="stroke-width: 1px; stroke: rgb(37, 99, 235); fill: transparent; stroke-linejoin: round; shape-rendering: crispedges; marker-end: url('#arrowSecuenceFlow92fe068a-46af-40d0-9700-00d15dd04699');"/></g></g></g></g><g class="djs-group"><g class="djs-element djs-connection" data-element-id="7b543114-c35b-4d08-a474-51aa6932b26d" id="gfx-7b543114-c35b-4d08-a474-51aa6932b26d" style="display: block;"><g class="djs-visual"><g><defs><marker id="arrowSecuenceFlow7b543114-c35b-4d08-a474-51aa6932b26d" markerWidth="12" markerHeight="12" refX="9.8" refY="6" orient="auto" markerUnits="strokeWidth"><path d="M0,0 L2,6 L0,12 L10,6 z" style="fill: rgb(37, 99, 235);"/></marker></defs><path class="" d="M2455,515L2455,654C2455,654,2455,660,2461,660L2869,660C2869,660,2875,660,2875,654L2875,505" style="stroke-width: 1px; stroke: rgb(37, 99, 235); fill: transparent; stroke-linejoin: round; shape-rendering: crispedges; marker-end: url('#arrowSecuenceFlow7b543114-c35b-4d08-a474-51aa6932b26d');"/></g></g></g></g><g class="djs-group"><g class="djs-element djs-shape" data-element-id="d79e68a9-197e-4325-b173-97517f8f701d" id="gfx-d79e68a9-197e-4325-b173-97517f8f701d" transform="matrix(1 0 0 1 2590 670)" style="display: block;"><g class="djs-visual"><rect x="0" y="0" width="220" height="40" style="fill: rgba(255, 255, 255, 0); stroke: transparent;"/><svg class="djs-svg-text" width="220" height="35"><text lineHeight="1.2" textDirection="0" textAlign="left" class="djs-label" style="font-family: 'Segoe UI'; font-size: 14.6096px; font-weight: normal; font-style: normal; fill: rgb(37, 99, 235);"><tspan x="6" y="17.75">No · keep private</tspan></text></svg></g></g></g><g class="djs-group"><g class="djs-element djs-connection" data-element-id="e0523732-12cc-411f-84a5-14e646da9182" id="gfx-e0523732-12cc-411f-84a5-14e646da9182" style="display: block;"><g class="djs-visual"><g><defs><marker id="arrowAssociatione0523732-12cc-411f-84a5-14e646da9182" markerWidth="10" markerHeight="8" refX="5.5" refY="4" orient="auto"><path d="M0,0 L4.5,4 L0,8" style="stroke: rgb(37, 99, 235); stroke-width: 0.7px; stroke-dasharray: 0; fill: none;"/></marker></defs><path class="" d="M780,530L780,840" style="stroke-width: 1.5px; stroke: rgb(37, 99, 235); fill: transparent; stroke-linejoin: round; shape-rendering: crispedges; stroke-dasharray: 2, 5;"/></g></g></g></g><g class="djs-group"><g class="djs-element djs-connection" data-element-id="a0bcde39-6593-43c0-8573-317c0e19afaa" id="gfx-a0bcde39-6593-43c0-8573-317c0e19afaa" style="display: block;"><g class="djs-visual"><g><defs><marker id="arrowAssociationa0bcde39-6593-43c0-8573-317c0e19afaa" markerWidth="10" markerHeight="8" refX="5.5" refY="4" orient="auto"><path d="M0,0 L4.5,4 L0,8" style="stroke: rgb(37, 99, 235); stroke-width: 0.7px; stroke-dasharray: 0; fill: none;"/></marker></defs><path class="" d="M1440,530L1440,594C1440,594,1440,600,1446,600L1514,600C1514,600,1520,600,1520,606L1520,840" style="stroke-width: 1.5px; stroke: rgb(37, 99, 235); fill: transparent; stroke-linejoin: round; shape-rendering: crispedges; stroke-dasharray: 2, 5;"/></g></g></g></g><g class="djs-group"><g class="djs-element djs-connection" data-element-id="ed1f88d8-d6d5-4db5-aecb-4672615589ab" id="gfx-ed1f88d8-d6d5-4db5-aecb-4672615589ab" style="display: block;"><g class="djs-visual"><g><defs><marker id="arrowAssociationed1f88d8-d6d5-4db5-aecb-4672615589ab" markerWidth="10" markerHeight="8" refX="5.5" refY="4" orient="auto"><path d="M0,0 L4.5,4 L0,8" style="stroke: rgb(37, 99, 235); stroke-width: 0.7px; stroke-dasharray: 0; fill: none;"/></marker></defs><path class="" d="M1900,530L1900,579C1900,579,1900,585,1906,585L2144,585C2144,585,2150,585,2150,591L2150,789C2150,789,2150,795,2144,795L1986,795C1986,795,1980,795,1980,801L1980,840" style="stroke-width: 1.5px; stroke: rgb(37, 99, 235); fill: transparent; stroke-linejoin: round; shape-rendering: crispedges; stroke-dasharray: 2, 5;"/></g></g></g></g><g class="djs-group"><g class="djs-element djs-connection" data-element-id="7fc0f9e4-84cc-4ca6-bc92-ee7aa98ab040" id="gfx-7fc0f9e4-84cc-4ca6-bc92-ee7aa98ab040" style="display: block;"><g class="djs-visual"><g><defs><marker id="arrowAssociation7fc0f9e4-84cc-4ca6-bc92-ee7aa98ab040" markerWidth="10" markerHeight="8" refX="5.5" refY="4" orient="auto"><path d="M0,0 L4.5,4 L0,8" style="stroke: rgb(37, 99, 235); stroke-width: 0.7px; stroke-dasharray: 0; fill: none;"/></marker></defs><path class="" d="M2480,490L2514,490C2514,490,2520,490,2520,496L2520,789C2520,789,2520,795,2526,795L2594,795C2594,795,2600,795,2600,801L2600,840" style="stroke-width: 1.5px; stroke: rgb(37, 99, 235); fill: transparent; stroke-linejoin: round; shape-rendering: crispedges; stroke-dasharray: 2, 5;"/></g></g></g></g>
            </svg>